<svg xmlns="http://www.w3.org/2000/svg" xmlns:xlink="http://www.w3.org/1999/xlink" enable-background="new 0 0 100 100" version="1.0" viewBox="0 0 100 100" xml:space="preserve"><svg xmlns="http://www.w3.org/2000/svg" xmlns:xlink="http://www.w3.org/1999/xlink" width="100" height="100" x="0" y="0" shape-rendering="crispEdges" version="1.1" viewBox="0 0 2000 2000"><rect width="2000" height="2000" x="0" y="0" fill="#fff"/><rect width="57" height="57" x="686" y="173" fill="#000"/><rect width="57" height="57" x="971" y="173" fill="#000"/><rect width="57" height="57" x="1085" y="173" fill="#000"/><rect width="57" height="57" x="1199" y="173" fill="#000"/><rect width="57" height="57" x="1313" y="173" fill="#000"/><rect width="57" height="57" x="629" y="230" fill="#000"/><rect width="57" height="57" x="686" y="230" fill="#000"/><rect width="57" height="57" x="800" y="230" fill="#000"/><rect width="57" height="57" x="857" y="230" fill="#000"/><rect width="57" height="57" x="1028" y="230" fill="#000"/><rect width="57" height="57" x="1085" y="230" fill="#000"/><rect width="57" height="57" x="686" y="287" fill="#000"/><rect width="57" height="57" x="743" y="287" fill="#000"/><rect width="57" height="57" x="800" y="287" fill="#000"/><rect width="57" height="57" x="1256" y="287" fill="#000"/><rect width="57" height="57" x="1313" y="287" fill="#000"/><rect width="57" height="57" x="629" y="344" fill="#000"/><rect width="57" height="57" x="686" y="344" fill="#000"/><rect width="57" height="57" x="800" y="344" fill="#000"/><rect width="57" height="57" x="1028" y="344" fill="#000"/><rect width="57" height="57" x="1085" y="344" fill="#000"/><rect width="57" height="57" x="1142" y="344" fill="#000"/><rect width="57" height="57" x="743" y="401" fill="#000"/><rect width="57" height="57" x="857" y="401" fill="#000"/><rect width="57" height="57" x="914" y="401" fill="#000"/><rect width="57" height="57" x="1028" y="401" fill="#000"/><rect width="57" height="57" x="1199" y="401" fill="#000"/><rect width="57" height="57" x="1256" y="401" fill="#000"/><rect width="57" height="57" x="1313" y="401" fill="#000"/><rect width="57" height="57" x="629" y="458" fill="#000"/><rect width="57" height="57" x="743" y="458" fill="#000"/><rect width="57" height="57" x="914" y="458" fill="#000"/><rect width="57" height="57" x="971" y="458" fill="#000"/><rect width="57" height="57" x="1028" y="458" fill="#000"/><rect width="57" height="57" x="1142" y="458" fill="#000"/><rect width="57" height="57" x="1199" y="458" fill="#000"/><rect width="57" height="57" x="1313" y="458" fill="#000"/><rect width="57" height="57" x="629" y="515" fill="#000"/><rect width="57" height="57" x="743" y="515" fill="#000"/><rect width="57" height="57" x="857" y="515" fill="#000"/><rect width="57" height="57" x="971" y="515" fill="#000"/><rect width="57" height="57" x="1085" y="515" fill="#000"/><rect width="57" height="57" x="1199" y="515" fill="#000"/><rect width="57" height="57" x="1313" y="515" fill="#000"/><rect width="57" height="57" x="857" y="572" fill="#000"/><rect width="57" height="57" x="914" y="572" fill="#000"/><rect width="57" height="57" x="1085" y="572" fill="#000"/><rect width="57" height="57" x="1313" y="572" fill="#000"/><rect width="57" height="57" x="173" y="629" fill="#000"/><rect width="57" height="57" x="230" y="629" fill="#000"/><rect width="57" height="57" x="287" y="629" fill="#000"/><rect width="57" height="57" x="344" y="629" fill="#000"/><rect width="57" height="57" x="401" y="629" fill="#000"/><rect width="57" height="57" x="515" y="629" fill="#000"/><rect width="57" height="57" x="572" y="629" fill="#000"/><rect width="57" height="57" x="629" y="629" fill="#000"/><rect width="57" height="57" x="686" y="629" fill="#000"/><rect width="57" height="57" x="743" y="629" fill="#000"/><rect width="57" height="57" x="857" y="629" fill="#000"/><rect width="57" height="57" x="971" y="629" fill="#000"/><rect width="57" height="57" x="1028" y="629" fill="#000"/><rect width="57" height="57" x="1085" y="629" fill="#000"/><rect width="57" height="57" x="1370" y="629" fill="#000"/><rect width="57" height="57" x="1484" y="629" fill="#000"/><rect width="57" height="57" x="1598" y="629" fill="#000"/><rect width="57" height="57" x="1712" y="629" fill="#000"/><rect width="57" height="57" x="287" y="686" fill="#000"/><rect width="57" height="57" x="344" y="686" fill="#000"/><rect width="57" height="57" x="401" y="686" fill="#000"/><rect width="57" height="57" x="629" y="686" fill="#000"/><rect width="57" height="57" x="686" y="686" fill="#000"/><rect width="57" height="57" x="1028" y="686" fill="#000"/><rect width="57" height="57" x="1199" y="686" fill="#000"/><rect width="57" height="57" x="1256" y="686" fill="#000"/><rect width="57" height="57" x="1313" y="686" fill="#000"/><rect width="57" height="57" x="1370" y="686" fill="#000"/><rect width="57" height="57" x="1427" y="686" fill="#000"/><rect width="57" height="57" x="1541" y="686" fill="#000"/><rect width="57" height="57" x="1598" y="686" fill="#000"/><rect width="57" height="57" x="1712" y="686" fill="#000"/><rect width="57" height="57" x="344" y="743" fill="#000"/><rect width="57" height="57" x="515" y="743" fill="#000"/><rect width="57" height="57" x="629" y="743" fill="#000"/><rect width="57" height="57" x="686" y="743" fill="#000"/><rect width="57" height="57" x="800" y="743" fill="#000"/><rect width="57" height="57" x="857" y="743" fill="#000"/><rect width="57" height="57" x="1028" y="743" fill="#000"/><rect width="57" height="57" x="1256" y="743" fill="#000"/><rect width="57" height="57" x="1484" y="743" fill="#000"/><rect width="57" height="57" x="1598" y="743" fill="#000"/><rect width="57" height="57" x="1655" y="743" fill="#000"/><rect width="57" height="57" x="230" y="800" fill="#000"/><rect width="57" height="57" x="344" y="800" fill="#000"/><rect width="57" height="57" x="458" y="800" fill="#000"/><rect width="57" height="57" x="572" y="800" fill="#000"/><rect width="57" height="57" x="686" y="800" fill="#000"/><rect width="57" height="57" x="743" y="800" fill="#000"/><rect width="57" height="57" x="800" y="800" fill="#000"/><rect width="57" height="57" x="971" y="800" fill="#000"/><rect width="57" height="57" x="1028" y="800" fill="#000"/><rect width="57" height="57" x="1085" y="800" fill="#000"/><rect width="57" height="57" x="1142" y="800" fill="#000"/><rect width="57" height="57" x="1199" y="800" fill="#000"/><rect width="57" height="57" x="1256" y="800" fill="#000"/><rect width="57" height="57" x="1313" y="800" fill="#000"/><rect width="57" height="57" x="1370" y="800" fill="#000"/><rect width="57" height="57" x="1427" y="800" fill="#000"/><rect width="57" height="57" x="1484" y="800" fill="#000"/><rect width="57" height="57" x="1541" y="800" fill="#000"/><rect width="57" height="57" x="1598" y="800" fill="#000"/><rect width="57" height="57" x="1769" y="800" fill="#000"/><rect width="57" height="57" x="230" y="857" fill="#000"/><rect width="57" height="57" x="458" y="857" fill="#000"/><rect width="57" height="57" x="515" y="857" fill="#000"/><rect width="57" height="57" x="629" y="857" fill="#000"/><rect width="57" height="57" x="686" y="857" fill="#000"/><rect width="57" height="57" x="800" y="857" fill="#000"/><rect width="57" height="57" x="1028" y="857" fill="#000"/><rect width="57" height="57" x="1313" y="857" fill="#000"/><rect width="57" height="57" x="1427" y="857" fill="#000"/><rect width="57" height="57" x="1484" y="857" fill="#000"/><rect width="57" height="57" x="173" y="914" fill="#000"/><rect width="57" height="57" x="287" y="914" fill="#000"/><rect width="57" height="57" x="344" y="914" fill="#000"/><rect width="57" height="57" x="401" y="914" fill="#000"/><rect width="57" height="57" x="629" y="914" fill="#000"/><rect width="57" height="57" x="743" y="914" fill="#000"/><rect width="57" height="57" x="857" y="914" fill="#000"/><rect width="57" height="57" x="914" y="914" fill="#000"/><rect width="57" height="57" x="971" y="914" fill="#000"/><rect width="57" height="57" x="1085" y="914" fill="#000"/><rect width="57" height="57" x="1199" y="914" fill="#000"/><rect width="57" height="57" x="1256" y="914" fill="#000"/><rect width="57" height="57" x="1313" y="914" fill="#000"/><rect width="57" height="57" x="1484" y="914" fill="#000"/><rect width="57" height="57" x="1598" y="914" fill="#000"/><rect width="57" height="57" x="1712" y="914" fill="#000"/><rect width="57" height="57" x="230" y="971" fill="#000"/><rect width="57" height="57" x="401" y="971" fill="#000"/><rect width="57" height="57" x="458" y="971" fill="#000"/><rect width="57" height="57" x="515" y="971" fill="#000"/><rect width="57" height="57" x="572" y="971" fill="#000"/><rect width="57" height="57" x="686" y="971" fill="#000"/><rect width="57" height="57" x="914" y="971" fill="#000"/><rect width="57" height="57" x="971" y="971" fill="#000"/><rect width="57" height="57" x="1028" y="971" fill="#000"/><rect width="57" height="57" x="1085" y="971" fill="#000"/><rect width="57" height="57" x="1142" y="971" fill="#000"/><rect width="57" height="57" x="1199" y="971" fill="#000"/><rect width="57" height="57" x="1256" y="971" fill="#000"/><rect width="57" height="57" x="1598" y="971" fill="#000"/><rect width="57" height="57" x="1655" y="971" fill="#000"/><rect width="57" height="57" x="1712" y="971" fill="#000"/><rect width="57" height="57" x="1769" y="971" fill="#000"/><rect width="57" height="57" x="173" y="1028" fill="#000"/><rect width="57" height="57" x="230" y="1028" fill="#000"/><rect width="57" height="57" x="344" y="1028" fill="#000"/><rect width="57" height="57" x="458" y="1028" fill="#000"/><rect width="57" height="57" x="572" y="1028" fill="#000"/><rect width="57" height="57" x="629" y="1028" fill="#000"/><rect width="57" height="57" x="743" y="1028" fill="#000"/><rect width="57" height="57" x="857" y="1028" fill="#000"/><rect width="57" height="57" x="914" y="1028" fill="#000"/><rect width="57" height="57" x="1085" y="1028" fill="#000"/><rect width="57" height="57" x="1256" y="1028" fill="#000"/><rect width="57" height="57" x="1427" y="1028" fill="#000"/><rect width="57" height="57" x="1484" y="1028" fill="#000"/><rect width="57" height="57" x="1541" y="1028" fill="#000"/><rect width="57" height="57" x="1712" y="1028" fill="#000"/><rect width="57" height="57" x="1769" y="1028" fill="#000"/><rect width="57" height="57" x="230" y="1085" fill="#000"/><rect width="57" height="57" x="287" y="1085" fill="#000"/><rect width="57" height="57" x="344" y="1085" fill="#000"/><rect width="57" height="57" x="401" y="1085" fill="#000"/><rect width="57" height="57" x="515" y="1085" fill="#000"/><rect width="57" height="57" x="572" y="1085" fill="#000"/><rect width="57" height="57" x="629" y="1085" fill="#000"/><rect width="57" height="57" x="686" y="1085" fill="#000"/><rect width="57" height="57" x="743" y="1085" fill="#000"/><rect width="57" height="57" x="857" y="1085" fill="#000"/><rect width="57" height="57" x="971" y="1085" fill="#000"/><rect width="57" height="57" x="1028" y="1085" fill="#000"/><rect width="57" height="57" x="1085" y="1085" fill="#000"/><rect width="57" height="57" x="1142" y="1085" fill="#000"/><rect width="57" height="57" x="1313" y="1085" fill="#000"/><rect width="57" height="57" x="1370" y="1085" fill="#000"/><rect width="57" height="57" x="173" y="1142" fill="#000"/><rect width="57" height="57" x="230" y="1142" fill="#000"/><rect width="57" height="57" x="287" y="1142" fill="#000"/><rect width="57" height="57" x="458" y="1142" fill="#000"/><rect width="57" height="57" x="572" y="1142" fill="#000"/><rect width="57" height="57" x="686" y="1142" fill="#000"/><rect width="57" height="57" x="743" y="1142" fill="#000"/><rect width="57" height="57" x="1028" y="1142" fill="#000"/><rect width="57" height="57" x="1199" y="1142" fill="#000"/><rect width="57" height="57" x="1313" y="1142" fill="#000"/><rect width="57" height="57" x="1427" y="1142" fill="#000"/><rect width="57" height="57" x="1484" y="1142" fill="#000"/><rect width="57" height="57" x="1541" y="1142" fill="#000"/><rect width="57" height="57" x="1598" y="1142" fill="#000"/><rect width="57" height="57" x="1769" y="1142" fill="#000"/><rect width="57" height="57" x="173" y="1199" fill="#000"/><rect width="57" height="57" x="287" y="1199" fill="#000"/><rect width="57" height="57" x="344" y="1199" fill="#000"/><rect width="57" height="57" x="401" y="1199" fill="#000"/><rect width="57" height="57" x="515" y="1199" fill="#000"/><rect width="57" height="57" x="572" y="1199" fill="#000"/><rect width="57" height="57" x="743" y="1199" fill="#000"/><rect width="57" height="57" x="800" y="1199" fill="#000"/><rect width="57" height="57" x="857" y="1199" fill="#000"/><rect width="57" height="57" x="1085" y="1199" fill="#000"/><rect width="57" height="57" x="1370" y="1199" fill="#000"/><rect width="57" height="57" x="1598" y="1199" fill="#000"/><rect width="57" height="57" x="1655" y="1199" fill="#000"/><rect width="57" height="57" x="1712" y="1199" fill="#000"/><rect width="57" height="57" x="173" y="1256" fill="#000"/><rect width="57" height="57" x="458" y="1256" fill="#000"/><rect width="57" height="57" x="629" y="1256" fill="#000"/><rect width="57" height="57" x="686" y="1256" fill="#000"/><rect width="57" height="57" x="743" y="1256" fill="#000"/><rect width="57" height="57" x="800" y="1256" fill="#000"/><rect width="57" height="57" x="971" y="1256" fill="#000"/><rect width="57" height="57" x="1028" y="1256" fill="#000"/><rect width="57" height="57" x="1085" y="1256" fill="#000"/><rect width="57" height="57" x="1142" y="1256" fill="#000"/><rect width="57" height="57" x="1199" y="1256" fill="#000"/><rect width="57" height="57" x="1256" y="1256" fill="#000"/><rect width="57" height="57" x="1313" y="1256" fill="#000"/><rect width="57" height="57" x="1370" y="1256" fill="#000"/><rect width="57" height="57" x="1427" y="1256" fill="#000"/><rect width="57" height="57" x="1484" y="1256" fill="#000"/><rect width="57" height="57" x="1541" y="1256" fill="#000"/><rect width="57" height="57" x="1712" y="1256" fill="#000"/><rect width="57" height="57" x="1769" y="1256" fill="#000"/><rect width="57" height="57" x="173" y="1313" fill="#000"/><rect width="57" height="57" x="287" y="1313" fill="#000"/><rect width="57" height="57" x="401" y="1313" fill="#000"/><rect width="57" height="57" x="515" y="1313" fill="#000"/><rect width="57" height="57" x="743" y="1313" fill="#000"/><rect width="57" height="57" x="800" y="1313" fill="#000"/><rect width="57" height="57" x="1028" y="1313" fill="#000"/><rect width="57" height="57" x="1142" y="1313" fill="#000"/><rect width="57" height="57" x="1199" y="1313" fill="#000"/><rect width="57" height="57" x="1313" y="1313" fill="#000"/><rect width="57" height="57" x="1370" y="1313" fill="#000"/><rect width="57" height="57" x="1427" y="1313" fill="#000"/><rect width="57" height="57" x="1484" y="1313" fill="#000"/><rect width="57" height="57" x="1541" y="1313" fill="#000"/><rect width="57" height="57" x="1598" y="1313" fill="#000"/><rect width="57" height="57" x="1655" y="1313" fill="#000"/><rect width="57" height="57" x="1712" y="1313" fill="#000"/><rect width="57" height="57" x="629" y="1370" fill="#000"/><rect width="57" height="57" x="686" y="1370" fill="#000"/><rect width="57" height="57" x="743" y="1370" fill="#000"/><rect width="57" height="57" x="857" y="1370" fill="#000"/><rect width="57" height="57" x="914" y="1370" fill="#000"/><rect width="57" height="57" x="971" y="1370" fill="#000"/><rect width="57" height="57" x="1313" y="1370" fill="#000"/><rect width="57" height="57" x="1541" y="1370" fill="#000"/><rect width="57" height="57" x="1712" y="1370" fill="#000"/><rect width="57" height="57" x="629" y="1427" fill="#000"/><rect width="57" height="57" x="686" y="1427" fill="#000"/><rect width="57" height="57" x="914" y="1427" fill="#000"/><rect width="57" height="57" x="971" y="1427" fill="#000"/><rect width="57" height="57" x="1028" y="1427" fill="#000"/><rect width="57" height="57" x="1085" y="1427" fill="#000"/><rect width="57" height="57" x="1313" y="1427" fill="#000"/><rect width="57" height="57" x="1427" y="1427" fill="#000"/><rect width="57" height="57" x="1541" y="1427" fill="#000"/><rect width="57" height="57" x="1598" y="1427" fill="#000"/><rect width="57" height="57" x="1655" y="1427" fill="#000"/><rect width="57" height="57" x="743" y="1484" fill="#000"/><rect width="57" height="57" x="857" y="1484" fill="#000"/><rect width="57" height="57" x="914" y="1484" fill="#000"/><rect width="57" height="57" x="1028" y="1484" fill="#000"/><rect width="57" height="57" x="1085" y="1484" fill="#000"/><rect width="57" height="57" x="1142" y="1484" fill="#000"/><rect width="57" height="57" x="1256" y="1484" fill="#000"/><rect width="57" height="57" x="1313" y="1484" fill="#000"/><rect width="57" height="57" x="1541" y="1484" fill="#000"/><rect width="57" height="57" x="1655" y="1484" fill="#000"/><rect width="57" height="57" x="1712" y="1484" fill="#000"/><rect width="57" height="57" x="1769" y="1484" fill="#000"/><rect width="57" height="57" x="629" y="1541" fill="#000"/><rect width="57" height="57" x="686" y="1541" fill="#000"/><rect width="57" height="57" x="743" y="1541" fill="#000"/><rect width="57" height="57" x="857" y="1541" fill="#000"/><rect width="57" height="57" x="971" y="1541" fill="#000"/><rect width="57" height="57" x="1028" y="1541" fill="#000"/><rect width="57" height="57" x="1199" y="1541" fill="#000"/><rect width="57" height="57" x="1256" y="1541" fill="#000"/><rect width="57" height="57" x="1313" y="1541" fill="#000"/><rect width="57" height="57" x="1370" y="1541" fill="#000"/><rect width="57" height="57" x="1427" y="1541" fill="#000"/><rect width="57" height="57" x="1484" y="1541" fill="#000"/><rect width="57" height="57" x="1541" y="1541" fill="#000"/><rect width="57" height="57" x="1655" y="1541" fill="#000"/><rect width="57" height="57" x="1712" y="1541" fill="#000"/><rect width="57" height="57" x="1769" y="1541" fill="#000"/><rect width="57" height="57" x="629" y="1598" fill="#000"/><rect width="57" height="57" x="686" y="1598" fill="#000"/><rect width="57" height="57" x="743" y="1598" fill="#000"/><rect width="57" height="57" x="1028" y="1598" fill="#000"/><rect width="57" height="57" x="1199" y="1598" fill="#000"/><rect width="57" height="57" x="1313" y="1598" fill="#000"/><rect width="57" height="57" x="1427" y="1598" fill="#000"/><rect width="57" height="57" x="1484" y="1598" fill="#000"/><rect width="57" height="57" x="629" y="1655" fill="#000"/><rect width="57" height="57" x="800" y="1655" fill="#000"/><rect width="57" height="57" x="857" y="1655" fill="#000"/><rect width="57" height="57" x="1085" y="1655" fill="#000"/><rect width="57" height="57" x="1256" y="1655" fill="#000"/><rect width="57" height="57" x="1370" y="1655" fill="#000"/><rect width="57" height="57" x="1427" y="1655" fill="#000"/><rect width="57" height="57" x="1484" y="1655" fill="#000"/><rect width="57" height="57" x="1655" y="1655" fill="#000"/><rect width="57" height="57" x="1712" y="1655" fill="#000"/><rect width="57" height="57" x="629" y="1712" fill="#000"/><rect width="57" height="57" x="743" y="1712" fill="#000"/><rect width="57" height="57" x="800" y="1712" fill="#000"/><rect width="57" height="57" x="971" y="1712" fill="#000"/><rect width="57" height="57" x="1028" y="1712" fill="#000"/><rect width="57" height="57" x="1085" y="1712" fill="#000"/><rect width="57" height="57" x="1256" y="1712" fill="#000"/><rect width="57" height="57" x="1313" y="1712" fill="#000"/><rect width="57" height="57" x="1598" y="1712" fill="#000"/><rect width="57" height="57" x="1655" y="1712" fill="#000"/><rect width="57" height="57" x="1769" y="1712" fill="#000"/><rect width="57" height="57" x="629" y="1769" fill="#000"/><rect width="57" height="57" x="686" y="1769" fill="#000"/><rect width="57" height="57" x="800" y="1769" fill="#000"/><rect width="57" height="57" x="1028" y="1769" fill="#000"/><rect width="57" height="57" x="1085" y="1769" fill="#000"/><rect width="57" height="57" x="1142" y="1769" fill="#000"/><rect width="57" height="57" x="1256" y="1769" fill="#000"/><rect width="57" height="57" x="1370" y="1769" fill="#000"/><rect width="57" height="57" x="1427" y="1769" fill="#000"/><rect width="57" height="57" x="1541" y="1769" fill="#000"/><rect width="57" height="57" x="1598" y="1769" fill="#000"/><rect width="57" height="57" x="1655" y="1769" fill="#000"/><svg id="Ebene_1" width="399" height="399" x="173" y="173" enable-background="new 0 0 699.988 699.986" shape-rendering="auto" version="1.1" viewBox="0 0 699.988 699.986" xml:space="preserve"><path fill="#000" d="M600.99,0h-100h-99.997h-0.001h-99.997h-99.998h-99.998H1v99.998v99.998v99.998v99.999v99.997v99.998v99.998 h99.999h99.998h99.998h99.997h0.001h99.997h100h99.998v-99.998V499.99v-99.997v-99.999v-99.998V99.998V0H600.99z M600.99,199.996 v99.998v99.999v99.997v99.998h-100h-99.997h-0.001h-99.997h-99.998h-99.998V499.99v-99.997v-99.999v-99.998V99.998h99.998h99.998 h99.997h0.001h99.997h100V199.996z"/></svg><svg id="Ebene_1" width="399" height="399" x="173" y="173" enable-background="new 0 0 699.988 699.988" shape-rendering="auto" version="1.0" viewBox="0 0 699.988 699.988" xml:space="preserve"><polygon fill="#000" points="399.994 199.997 399.992 199.997 299.996 199.997 199.998 199.997 199.998 299.994 199.998 399.994 199.998 499.991 299.996 499.991 399.992 499.991 399.994 499.991 499.99 499.991 499.99 399.994 499.99 299.994 499.99 199.997"/></svg><svg id="Ebene_1" width="399" height="399" x="1427" y="173" enable-background="new 0 0 699.988 699.986" shape-rendering="auto" version="1.1" viewBox="0 0 699.988 699.986" xml:space="preserve"><path fill="#000" d="M600.99,0h-100h-99.997h-0.001h-99.997h-99.998h-99.998H1v99.998v99.998v99.998v99.999v99.997v99.998v99.998 h99.999h99.998h99.998h99.997h0.001h99.997h100h99.998v-99.998V499.99v-99.997v-99.999v-99.998V99.998V0H600.99z M600.99,199.996 v99.998v99.999v99.997v99.998h-100h-99.997h-0.001h-99.997h-99.998h-99.998V499.99v-99.997v-99.999v-99.998V99.998h99.998h99.998 h99.997h0.001h99.997h100V199.996z"/></svg><svg id="Ebene_1" width="399" height="399" x="1427" y="173" enable-background="new 0 0 699.988 699.988" shape-rendering="auto" version="1.0" viewBox="0 0 699.988 699.988" xml:space="preserve"><polygon fill="#000" points="399.994 199.997 399.992 199.997 299.996 199.997 199.998 199.997 199.998 299.994 199.998 399.994 199.998 499.991 299.996 499.991 399.992 499.991 399.994 499.991 499.99 499.991 499.99 399.994 499.99 299.994 499.99 199.997"/></svg><svg id="Ebene_1" width="399" height="399" x="173" y="1427" enable-background="new 0 0 699.988 699.986" shape-rendering="auto" version="1.1" viewBox="0 0 699.988 699.986" xml:space="preserve"><path fill="#000" d="M600.99,0h-100h-99.997h-0.001h-99.997h-99.998h-99.998H1v99.998v99.998v99.998v99.999v99.997v99.998v99.998 h99.999h99.998h99.998h99.997h0.001h99.997h100h99.998v-99.998V499.99v-99.997v-99.999v-99.998V99.998V0H600.99z M600.99,199.996 v99.998v99.999v99.997v99.998h-100h-99.997h-0.001h-99.997h-99.998h-99.998V499.99v-99.997v-99.999v-99.998V99.998h99.998h99.998 h99.997h0.001h99.997h100V199.996z"/></svg><svg id="Ebene_1" width="399" height="399" x="173" y="1427" enable-background="new 0 0 699.988 699.988" shape-rendering="auto" version="1.0" viewBox="0 0 699.988 699.988" xml:space="preserve"><polygon fill="#000" points="399.994 199.997 399.992 199.997 299.996 199.997 199.998 199.997 199.998 299.994 199.998 399.994 199.998 499.991 299.996 499.991 399.992 499.991 399.994 499.991 499.99 499.991 499.99 399.994 499.99 299.994 499.99 199.997"/></svg></svg></svg>